<svg xmlns="http://www.w3.org/2000/svg" viewBox="0 0 160 160" xmlns:v="https://vecta.io/nano">
  <path
    d="M63.7 28l.6.8v5l4.1 4.1.9-.1 12.2-.8h.8l4.6-4.6.7-.4 3.4 6-5.5 5.8-2.1 2.2 2.8 1.1 8.2 3.1 1 .4.9-.6 5.3-3.6 18.9 6.8 7.4 5 .2.2 5 2.3v7L121 78.2l-.6.5-.1.8-1.8 15.5-7.5 10.2h-6l-.4.2-10.6 5.1-1 .5-.1 1.1-.7 8.1c-6.7 6.6-9.8 9.9-11.4 11.7l-4-2.4-3.1-2.8 1.6-4.5L81 119l1-.6v-5.1l-.1-.3-1.1-4-.3-1.2-1.2-.2-.7-.1-1-3.4-.3-.9-.9-.4-3.4-1.5-.7-3.7 1-3.8.2-.9-.5-.8-3.8-5.5-.4-.6-.6-.2-2.6-.9.1-4.2v-1.4l-1.3-.5L52 73.5l-.5-2.4-.1-.6-.4-.4-2.3-2.1-.9-.8-1.1.3-9.8 3.1v-4l-2.1.1-5.7.3-1.9-3.9 1.6-5.6 6.7-2.7.8-.3.3-.8 2.7-6.5.4-.9-.4-.8-2.3-4.1 2-3.7 3.9-1 4.2 3.7 1.4 1.2 5.7-5.7-.2-1.1-1-4.3.6-1.4 4.8.9.6.1.6-.2 4.1-1.9m.6-2.4l-5.7 2.5-6.3-1.1-1.5 3.4 1.1 5-3.6 3.6-5-4.4-5.7 1.5-2.9 5.3 2.7 5.2-2.7 6.5-7.6 3.1-2.1 7.2 2.9 5.7 7.1-.4v3.8l2.1.2 10.3-3.2 2.3 2.1.8 3.4 13.4 5.7-.2 5.7 4 1.3 3.8 5.5-1.1 4.2 1 5.2 4.4 1.9 1.3 4.6 1.9.4 1.1 4v3.6l-6.3 3.4-2.3 6.5 4.2 3.8 5.7 3.4c.2-1 12.8-13.4 12.8-13.4l.8-8.8 10.5-5.2h6.5l8.4-11.5 1.9-16L135 68.5v-9.2l-6.1-2.9-7.6-5.2-20.1-7.3-6.1 4.2-8.2-3.1 6.5-6.9-5.2-9.2-2.6 1.7-4.2 4.2-12.2.8-2.9-2.6v-4.8l-2-2.6z"
    fill="#004852"></path>
  <path
    d="M80 70c5.5 0 10 4.5 10 10s-4.5 10-10 10-10-4.5-10-10 4.5-10 10-10m0-2a12.04 12.04 0 0 0-12 12 12.04 12.04 0 0 0 12 12 12.04 12.04 0 0 0 12-12 12.04 12.04 0 0 0-12-12h0zm0-50c34.2 0 62 27.8 62 62s-27.8 62-62 62-62-27.8-62-62 27.8-62 62-62m0-2c-35.3 0-64 28.7-64 64s28.7 64 64 64 64-28.7 64-64-28.7-64-64-64h0zm0 30c18.7 0 34 15.3 34 34s-15.3 34-34 34-34-15.3-34-34 15.3-34 34-34m0-2c-19.9 0-36 16.1-36 36s16.1 36 36 36 36-16.1 36-36-16.1-36-36-36h0z"
    fill="#01C0D3"></path>
</svg>