<svg xmlns="http://www.w3.org/2000/svg" viewBox="0 0 160 160" xmlns:v="https://vecta.io/nano">
  <path
    d="M83.5 38h-8c-2.2 0-4-1.8-4-4s1.8-4 4-4h8c2.2 0 4 1.8 4 4s-1.8 4-4 4zm-8-6c-1.1 0-2 .9-2 2s.9 2 2 2h8c1.1 0 2-.9 2-2s-.9-2-2-2h-8zm4 98c-4.4 0-8-3.6-8-8s3.6-8 8-8 8 3.6 8 8-3.6 8-8 8zm0-14a6.02 6.02 0 0 0-6 6 6.02 6.02 0 0 0 6 6 6.02 6.02 0 0 0 6-6 6.02 6.02 0 0 0-6-6z"
    fill="#004852"></path>
  <path
    d="M110.5 84c-12.1 0-22-9.9-22-22s9.9-22 22-22 22 9.9 22 22-9.9 22-22 22zm0-42c-11 0-20 9-20 20s9 20 20 20 20-9 20-20-9-20-20-20zm0 19a4.95 4.95 0 0 1-5-5 5 5 0 1 1 10 0h2c0-3.5-2.6-6.4-6-6.9V46h-2v3.1c-3.4.5-6 3.4-6 6.9 0 3.9 3.1 7 7 7a4.95 4.95 0 0 1 5 5 5 5 0 1 1-10 0h-2c0 3.5 2.6 6.4 6 6.9V78h2v-3.1c3.4-.5 6-3.4 6-6.9 0-3.9-3.2-7-7-7zm-39 50h-44V49h44v62zm-42-2h40V51h-40v58zm7-48h26v2h-26zm0 8h26v2h-26zm0 8h26v2h-26zm0 8h26v2h-26zm0 8h16v2h-16z"
    fill="#01C0D3"></path>
  <path
    d="M49.5 33c0-4.4 3.6-8 8-8h44c4.4 0 8 3.6 8 8v7h2v-7c0-5.5-4.5-10-10-10h-44c-5.5 0-10 4.5-10 10v16h2V33zm61 51h-1v43c0 4.4-3.6 8-8 8h-44c-4.4 0-8-3.6-8-8v-16h-2v16c0 5.5 4.5 10 10 10h44c5.5 0 10-4.5 10-10V84h-1z"
    fill="#004852"></path>
</svg>