<svg class="dest-img" xmlns="http://www.w3.org/2000/svg" viewBox="0 0 160 160" fill-rule="evenodd"
  xmlns:v="https://vecta.io/nano">
  <path
    d="M150 56L80 26 10 56l29 12.4V100c0 9.4 20.9 15 41 15 10.2 0 20.5-1.4 28.3-4 .1-.8.3-1.6.5-2.3-6.9 2.5-16.8 4.3-28.8 4.3-23.3 0-39-6.7-39-13V69.3L80 86l39-16.7v26.9c.7-.3 1.3-.6 2-.9V68.4l27-11.6V86h2V56zM80 83.8L15.1 56 80 28.2 144.9 56 80 83.8z"
    fill="#004852"></path>
  <path
    d="M151.3 95.7l-1.4-1.4-6.7 6.7c-3.7-4.3-9.1-7-15.2-7-11 0-20 9-20 20s9 20 20 20 20-9 20-20c0-4.2-1.3-8.2-3.6-11.4l6.9-6.9zm-5.4 18.3c0 9.9-8.1 18-18 18s-18-8.1-18-18 8.1-18 18-18c5.5 0 10.4 2.5 13.7 6.4L128 116.2l-10.6-10.6-1.4 1.4 12 12 15-15c1.8 2.9 2.9 6.3 2.9 10z"
    fill="#feb0ba"></path>
</svg>