<svg xmlns="http://www.w3.org/2000/svg" viewBox="0 0 160 160" xmlns:v="https://vecta.io/nano">
  <path d="M47.6 65.5L36 53.9V37.5h2v15.6l11.1 11z" fill="#01C0D3"></path>
  <g fill="#004852">
    <path d="M127 63.5h2v70h-2zm-42 0h2v70h-2z"></path>
    <path
      d="M105 72.5H54.6l2.1-2H105zm-65.958 53.957l.005-2 17 .043-.005 2zM107 120.5c-12.1 0-22-9.9-22-22s9.9-22 22-22 22 9.9 22 22-9.8 22-22 22zm0-42c-11 0-20 9-20 20s9 20 20 20 20-9 20-20-8.9-20-20-20z">
    </path>
  </g>
  <path
    d="M37 28.5c13.8 0 25 11.2 25 25s-11.2 25-25 25-25-11.2-25-25 11.3-25 25-25m0-2c-14.9 0-27 12.1-27 27s12.1 27 27 27 27-12.1 27-27-12-27-27-27h0z"
    fill="#01C0D3"></path>
  <g fill="#004852">
    <path d="M64 53.5c0 .7 0 1.3-.1 2H138v9h2v-11H64zm-52 68V63.7c-1.3-3.1-2-6.6-2-10.2v70h11.1l-.5-2H12z"></path>
    <path
      d="M62.1 63.5l-.9 2H148v66H22V76l-2-1.5v59h130v-70H62.1zm45.5 34a4.95 4.95 0 0 1-5-5 5 5 0 1 1 10 0h2c0-3.5-2.6-6.4-6-6.9v-3.1h-2v3.1c-3.4.5-6 3.4-6 6.9 0 3.9 3.1 7 7 7a5 5 0 1 1 0 10 4.95 4.95 0 0 1-5-5h-2c0 3.5 2.6 6.4 6 6.9v3h2v-3c3.4-.5 6-3.4 6-6.9 0-3.9-3.1-7-7-7z">
    </path>
  </g>
</svg>